<svg width="68" height="92" viewBox="0 0 68 92" fill="none" xmlns="http://www.w3.org/2000/svg">
<g filter="url(#filter0_d_3_161)">
<path d="M64 54C64 70.5685 50.5685 84 34 84C17.4315 84 4 70.5685 4 54C4 37.4315 17.4315 24 34 24C50.5685 24 64 37.4315 64 54Z" fill="#F2F2F2"/>
</g>
<path fill-rule="evenodd" clip-rule="evenodd" d="M38.4443 45.1107H23.9998C23.3887 45.1107 22.8887 45.6107 22.8887 46.2218V61.7773L27.3332 57.3329H38.4443C39.0554 57.3329 39.5554 56.8329 39.5554 56.2218V46.2218C39.5554 45.6107 39.0554 45.1107 38.4443 45.1107ZM37.3332 47.3328V55.1106H26.411L25.7554 55.7661L25.111 56.4106V47.3328H37.3332ZM41.7776 49.5551H43.9998C44.611 49.5551 45.111 50.0551 45.111 50.6662V67.3329L40.6665 62.8885H28.4443C27.8332 62.8885 27.3332 62.3885 27.3332 61.7773V59.5551H41.7776V49.5551Z" fill="#8885FF"/>
<path d="M17.342 12H15.182V0.431999H17.342V12Z" fill="#F2F2F2"/>
<path d="M19.8373 12V3.792H21.0453C21.3013 3.792 21.4693 3.912 21.5493 4.152L21.6853 4.8C21.8506 4.62933 22.0239 4.47467 22.2053 4.336C22.3919 4.19733 22.5866 4.07733 22.7893 3.976C22.9973 3.87467 23.2186 3.79733 23.4533 3.744C23.6879 3.69067 23.9439 3.664 24.2213 3.664C24.6693 3.664 25.0666 3.74133 25.4133 3.896C25.7599 4.04533 26.0479 4.25867 26.2773 4.536C26.5119 4.808 26.6879 5.136 26.8053 5.52C26.9279 5.89867 26.9893 6.31733 26.9893 6.776V12H25.0133V6.776C25.0133 6.27467 24.8959 5.888 24.6613 5.616C24.4319 5.33867 24.0853 5.2 23.6213 5.2C23.2799 5.2 22.9599 5.27733 22.6613 5.432C22.3626 5.58667 22.0799 5.79733 21.8133 6.064V12H19.8373Z" fill="#F2F2F2"/>
<path d="M28.955 12V0.112H30.931V4.8C31.2563 4.45333 31.6243 4.17867 32.035 3.976C32.4457 3.768 32.9257 3.664 33.475 3.664C33.923 3.664 34.331 3.75733 34.699 3.944C35.0723 4.12533 35.3923 4.392 35.659 4.744C35.931 5.096 36.139 5.53067 36.283 6.048C36.4323 6.56533 36.507 7.16 36.507 7.832C36.507 8.44533 36.4243 9.01333 36.259 9.536C36.0937 10.0587 35.8563 10.512 35.547 10.896C35.243 11.28 34.8723 11.5813 34.435 11.8C34.003 12.0133 33.5177 12.12 32.979 12.12C32.7283 12.12 32.499 12.0933 32.291 12.04C32.083 11.992 31.8937 11.9227 31.723 11.832C31.5523 11.7413 31.3923 11.632 31.243 11.504C31.099 11.3707 30.9603 11.224 30.827 11.064L30.739 11.616C30.707 11.7547 30.651 11.8533 30.571 11.912C30.4963 11.9707 30.3923 12 30.259 12H28.955ZM32.795 5.2C32.3843 5.2 32.0323 5.288 31.739 5.464C31.451 5.63467 31.1817 5.87733 30.931 6.192V9.872C31.155 10.1493 31.3977 10.344 31.659 10.456C31.9257 10.5627 32.2137 10.616 32.523 10.616C32.8217 10.616 33.091 10.56 33.331 10.448C33.571 10.336 33.7737 10.1653 33.939 9.936C34.1097 9.70667 34.2403 9.41867 34.331 9.072C34.4217 8.72 34.467 8.30667 34.467 7.832C34.467 7.352 34.427 6.94667 34.347 6.616C34.2723 6.28 34.163 6.008 34.019 5.8C33.875 5.592 33.699 5.44 33.491 5.344C33.2883 5.248 33.0563 5.2 32.795 5.2Z" fill="#F2F2F2"/>
<path d="M41.56 3.664C42.1733 3.664 42.728 3.76267 43.224 3.96C43.7253 4.15733 44.152 4.43733 44.504 4.8C44.856 5.16267 45.128 5.60533 45.32 6.128C45.512 6.65067 45.608 7.23467 45.608 7.88C45.608 8.53067 45.512 9.11733 45.32 9.64C45.128 10.1627 44.856 10.608 44.504 10.976C44.152 11.344 43.7253 11.6267 43.224 11.824C42.728 12.0213 42.1733 12.12 41.56 12.12C40.9467 12.12 40.3893 12.0213 39.888 11.824C39.3867 11.6267 38.9573 11.344 38.6 10.976C38.248 10.608 37.9733 10.1627 37.776 9.64C37.584 9.11733 37.488 8.53067 37.488 7.88C37.488 7.23467 37.584 6.65067 37.776 6.128C37.9733 5.60533 38.248 5.16267 38.6 4.8C38.9573 4.43733 39.3867 4.15733 39.888 3.96C40.3893 3.76267 40.9467 3.664 41.56 3.664ZM41.56 10.6C42.2427 10.6 42.7467 10.3707 43.072 9.912C43.4027 9.45333 43.568 8.78133 43.568 7.896C43.568 7.01067 43.4027 6.336 43.072 5.872C42.7467 5.408 42.2427 5.176 41.56 5.176C40.8667 5.176 40.3547 5.41067 40.024 5.88C39.6933 6.344 39.528 7.016 39.528 7.896C39.528 8.776 39.6933 9.448 40.024 9.912C40.3547 10.3707 40.8667 10.6 41.56 10.6Z" fill="#F2F2F2"/>
<path d="M48.6094 7.768L45.9134 3.792H47.8174C47.9614 3.792 48.0681 3.81333 48.1374 3.856C48.2067 3.89333 48.2681 3.95733 48.3214 4.048L50.0414 6.792C50.068 6.70133 50.1 6.61067 50.1374 6.52C50.18 6.42933 50.2307 6.33867 50.2894 6.248L51.6734 4.088C51.7374 3.98667 51.8041 3.912 51.8734 3.864C51.9427 3.816 52.028 3.792 52.1294 3.792H53.9454L51.2414 7.68L54.0574 12H52.1534C52.0094 12 51.8921 11.9627 51.8014 11.888C51.716 11.8133 51.6441 11.728 51.5854 11.632L49.8414 8.776C49.7934 8.968 49.7267 9.128 49.6414 9.256L48.1054 11.632C48.0467 11.7227 47.9747 11.808 47.8894 11.888C47.804 11.9627 47.6974 12 47.5694 12H45.8014L48.6094 7.768Z" fill="#F2F2F2"/>
<defs>
<filter id="filter0_d_3_161" x="0" y="24" width="68" height="68" filterUnits="userSpaceOnUse" color-interpolation-filters="sRGB">
<feFlood flood-opacity="0" result="BackgroundImageFix"/>
<feColorMatrix in="SourceAlpha" type="matrix" values="0 0 0 0 0 0 0 0 0 0 0 0 0 0 0 0 0 0 127 0" result="hardAlpha"/>
<feOffset dy="4"/>
<feGaussianBlur stdDeviation="2"/>
<feColorMatrix type="matrix" values="0 0 0 0 0 0 0 0 0 0 0 0 0 0 0 0 0 0 0.1 0"/>
<feBlend mode="normal" in2="BackgroundImageFix" result="effect1_dropShadow_3_161"/>
<feBlend mode="normal" in="SourceGraphic" in2="effect1_dropShadow_3_161" result="shape"/>
</filter>
</defs>
</svg>
