<svg width="68" height="94" viewBox="0 0 68 94" fill="none" xmlns="http://www.w3.org/2000/svg">
<g filter="url(#filter0_d_3_172)">
<path d="M64 56C64 72.5685 50.5685 86 34 86C17.4315 86 4 72.5685 4 56C4 39.4315 17.4315 26 34 26C50.5685 26 64 39.4315 64 56Z" fill="#F2F2F2"/>
</g>
<path fill-rule="evenodd" clip-rule="evenodd" d="M25.1112 47.6667H45.1112C46.3334 47.6667 47.3334 48.6667 47.3334 49.8889V64.3334C47.3334 65.5556 46.3334 66.5556 45.1112 66.5556H25.1112C23.8889 66.5556 22.8889 65.5556 22.8889 64.3334V49.8889C22.8889 48.6667 23.8889 47.6667 25.1112 47.6667ZM25.1112 49.8889V64.3334H34.0001V49.8889H25.1112ZM45.1112 64.3334H36.2223V49.8889H45.1112V64.3334ZM44.0001 53.7778H37.3334V55.4445H44.0001V53.7778ZM37.3334 56.5556H44.0001V58.2222H37.3334V56.5556ZM44.0001 59.3334H37.3334V61H44.0001V59.3334Z" fill="#F8B76B"/>
<path d="M27.945 0.431999V2.2H24.465V12H22.313V2.2H18.817V0.431999H27.945Z" fill="#F2F2F2"/>
<path d="M33.6755 12H32.7875C32.6008 12 32.4542 11.9733 32.3475 11.92C32.2408 11.8613 32.1608 11.7467 32.1075 11.576L31.9315 10.992C31.7235 11.1787 31.5182 11.344 31.3155 11.488C31.1182 11.6267 30.9128 11.744 30.6995 11.84C30.4862 11.936 30.2595 12.008 30.0195 12.056C29.7795 12.104 29.5128 12.128 29.2195 12.128C28.8728 12.128 28.5528 12.0827 28.2595 11.992C27.9662 11.896 27.7128 11.7547 27.4995 11.568C27.2915 11.3813 27.1288 11.1493 27.0115 10.872C26.8942 10.5947 26.8355 10.272 26.8355 9.904C26.8355 9.59467 26.9155 9.29067 27.0755 8.992C27.2408 8.688 27.5128 8.416 27.8915 8.176C28.2702 7.93067 28.7742 7.728 29.4035 7.568C30.0328 7.408 30.8142 7.31733 31.7475 7.296V6.816C31.7475 6.26667 31.6302 5.86133 31.3955 5.6C31.1662 5.33333 30.8302 5.2 30.3875 5.2C30.0675 5.2 29.8008 5.23733 29.5875 5.312C29.3742 5.38667 29.1875 5.472 29.0275 5.568C28.8728 5.65867 28.7288 5.74133 28.5955 5.816C28.4622 5.89067 28.3155 5.928 28.1555 5.928C28.0222 5.928 27.9075 5.89333 27.8115 5.824C27.7155 5.75467 27.6382 5.66933 27.5795 5.568L27.2195 4.936C28.1635 4.072 29.3022 3.64 30.6355 3.64C31.1155 3.64 31.5422 3.72 31.9155 3.88C32.2942 4.03467 32.6142 4.25333 32.8755 4.536C33.1368 4.81333 33.3342 5.14667 33.4675 5.536C33.6062 5.92533 33.6755 6.352 33.6755 6.816V12ZM29.8355 10.768C30.0382 10.768 30.2248 10.7493 30.3955 10.712C30.5662 10.6747 30.7262 10.6187 30.8755 10.544C31.0302 10.4693 31.1768 10.3787 31.3155 10.272C31.4595 10.16 31.6035 10.0293 31.7475 9.88V8.496C31.1715 8.52267 30.6888 8.57333 30.2995 8.648C29.9155 8.71733 29.6062 8.808 29.3715 8.92C29.1368 9.032 28.9688 9.16267 28.8675 9.312C28.7715 9.46133 28.7235 9.624 28.7235 9.8C28.7235 10.1467 28.8248 10.3947 29.0275 10.544C29.2355 10.6933 29.5048 10.768 29.8355 10.768Z" fill="#F2F2F2"/>
<path d="M40.4905 5.392C40.4372 5.47733 40.3812 5.53867 40.3225 5.576C40.2638 5.608 40.1892 5.624 40.0985 5.624C40.0025 5.624 39.8985 5.59733 39.7865 5.544C39.6798 5.49067 39.5545 5.432 39.4105 5.368C39.2665 5.29867 39.1012 5.23733 38.9145 5.184C38.7332 5.13067 38.5172 5.104 38.2665 5.104C37.8772 5.104 37.5705 5.18667 37.3465 5.352C37.1225 5.51733 37.0105 5.73333 37.0105 6C37.0105 6.176 37.0665 6.32533 37.1785 6.448C37.2958 6.56533 37.4478 6.66933 37.6345 6.76C37.8265 6.85067 38.0425 6.93333 38.2825 7.008C38.5225 7.07733 38.7678 7.15467 39.0185 7.24C39.2692 7.32533 39.5145 7.424 39.7545 7.536C39.9945 7.64267 40.2078 7.78133 40.3945 7.952C40.5865 8.11733 40.7385 8.31733 40.8505 8.552C40.9678 8.78667 41.0265 9.06933 41.0265 9.4C41.0265 9.79467 40.9545 10.16 40.8105 10.496C40.6665 10.8267 40.4558 11.1147 40.1785 11.36C39.9012 11.6 39.5572 11.7893 39.1465 11.928C38.7412 12.0613 38.2745 12.128 37.7465 12.128C37.4638 12.128 37.1865 12.1013 36.9145 12.048C36.6478 12 36.3892 11.9307 36.1385 11.84C35.8932 11.7493 35.6638 11.6427 35.4505 11.52C35.2425 11.3973 35.0585 11.264 34.8985 11.12L35.3545 10.368C35.4132 10.2773 35.4825 10.208 35.5625 10.16C35.6425 10.112 35.7438 10.088 35.8665 10.088C35.9892 10.088 36.1038 10.1227 36.2105 10.192C36.3225 10.2613 36.4505 10.336 36.5945 10.416C36.7385 10.496 36.9065 10.5707 37.0985 10.64C37.2958 10.7093 37.5438 10.744 37.8425 10.744C38.0772 10.744 38.2772 10.7173 38.4425 10.664C38.6132 10.6053 38.7518 10.5307 38.8585 10.44C38.9705 10.3493 39.0505 10.2453 39.0985 10.128C39.1518 10.0053 39.1785 9.88 39.1785 9.752C39.1785 9.56 39.1198 9.40267 39.0025 9.28C38.8905 9.15733 38.7385 9.05067 38.5465 8.96C38.3598 8.86933 38.1438 8.78933 37.8985 8.72C37.6585 8.64533 37.4105 8.56533 37.1545 8.48C36.9038 8.39467 36.6558 8.296 36.4105 8.184C36.1705 8.06667 35.9545 7.92 35.7625 7.744C35.5758 7.568 35.4238 7.352 35.3065 7.096C35.1945 6.84 35.1385 6.53067 35.1385 6.168C35.1385 5.832 35.2052 5.512 35.3385 5.208C35.4718 4.904 35.6665 4.64 35.9225 4.416C36.1838 4.18667 36.5065 4.00533 36.8905 3.872C37.2798 3.73333 37.7278 3.664 38.2345 3.664C38.7998 3.664 39.3145 3.75733 39.7785 3.944C40.2425 4.13067 40.6292 4.376 40.9385 4.68L40.4905 5.392Z" fill="#F2F2F2"/>
<path d="M44.6029 0.112V6.92H44.9709C45.1042 6.92 45.2082 6.90133 45.2829 6.864C45.3575 6.82667 45.4375 6.75733 45.5229 6.656L47.5629 4.136C47.6535 4.02933 47.7495 3.94667 47.8509 3.888C47.9522 3.824 48.0855 3.792 48.2509 3.792H50.0589L47.5069 6.84C47.4162 6.952 47.3229 7.056 47.2269 7.152C47.1309 7.24267 47.0269 7.32267 46.9149 7.392C47.0269 7.472 47.1255 7.56533 47.2109 7.672C47.2962 7.77867 47.3815 7.89333 47.4669 8.016L50.2029 12H48.4189C48.2642 12 48.1335 11.9733 48.0269 11.92C47.9202 11.8667 47.8242 11.776 47.7389 11.648L45.6509 8.536C45.5709 8.41333 45.4909 8.33333 45.4109 8.296C45.3309 8.25867 45.2109 8.24 45.0509 8.24H44.6029V12H42.6269V0.112H44.6029Z" fill="#F2F2F2"/>
<defs>
<filter id="filter0_d_3_172" x="0" y="26" width="68" height="68" filterUnits="userSpaceOnUse" color-interpolation-filters="sRGB">
<feFlood flood-opacity="0" result="BackgroundImageFix"/>
<feColorMatrix in="SourceAlpha" type="matrix" values="0 0 0 0 0 0 0 0 0 0 0 0 0 0 0 0 0 0 127 0" result="hardAlpha"/>
<feOffset dy="4"/>
<feGaussianBlur stdDeviation="2"/>
<feColorMatrix type="matrix" values="0 0 0 0 0 0 0 0 0 0 0 0 0 0 0 0 0 0 0.1 0"/>
<feBlend mode="normal" in2="BackgroundImageFix" result="effect1_dropShadow_3_172"/>
<feBlend mode="normal" in="SourceGraphic" in2="effect1_dropShadow_3_172" result="shape"/>
</filter>
</defs>
</svg>
